# xmcd CD database file
#
# Track frame offsets:
#	225
#	23325
#	46147
#	57893
#	72542
#	85691
#	102666
#	117753
#	136301
#	147518
#	163836
#	187146
#	204784
#	216316
#	238476
#
# Disc length: 3389 seconds
#
# Revision: 0
# Processed by: cddbd v1.5PL3 Copyright (c) Steve Scherf et al.
# Submitted via: CDex 1.51
#
DISCID=e00d3a0f
DTITLE=Various Artist - As Time Goes By
DYEAR=1999
DGENRE=Jazz
TTITLE0=Girl From Ipanema
TTITLE1=As Time Goes By
TTITLE2=Fascinating Rhythm
TTITLE3=Joy Spring
TTITLE4=Gravy Waltz
TTITLE5=Meditation
TTITLE6=Blue Charlie Brown
TTITLE7=Satin Doll
TTITLE8=Roundalay
TTITLE9=The Days Of Wine And Roses
TTITLE10=Someone To Watch Over Me 
TTITLE11=Take The 'A' Train
TTITLE12=Blue Bossa
TTITLE13=When Sunny Gets Blue
TTITLE14=Linus And Lucy
EXTD=YEAR: 1999
EXTT0=
EXTT1=
EXTT2=
EXTT3=
EXTT4=
EXTT5=
EXTT6=
EXTT7=
EXTT8=
EXTT9=
EXTT10=
EXTT11=
EXTT12=
EXTT13=
EXTT14=
PLAYORDER=
